<svg width="134" height="40" viewBox="0 0 134 40" fill="none" xmlns="http://www.w3.org/2000/svg">
  <path d="M18.4444 0H21.5556V40H18.4444V0Z" fill="#00C3F7"/>
  <path d="M0 18.4444H40V21.5556H0V18.4444Z" fill="#00C3F7"/>
  <path d="M27.4444 11.1111C27.4444 17.2587 22.4698 22.2222 16.3333 22.2222C10.1857 22.2222 5.22217 17.2587 5.22217 11.1111C5.22217 4.96357 10.1857 0 16.3333 0C22.4698 0 27.4444 4.96357 27.4444 11.1111Z" fill="#00C3F7"/>
  <path d="M34.7778 28.8889C34.7778 34.9254 29.8142 39.8889 23.6667 39.8889C17.5191 39.8889 12.5556 34.9254 12.5556 28.8889C12.5556 22.8413 17.5191 17.8778 23.6667 17.8778C29.8142 17.8778 34.7778 22.8413 34.7778 28.8889Z" fill="#00C3F7"/>
  <path d="M51.5556 15.5556H55.5556V17.7778H55.6667C56.2222 16.8889 57 16.2222 58 15.7778C59 15.3333 60.0556 15.1111 61.1667 15.1111C62.7778 15.1111 64.1111 15.4444 65.1111 16.1111C66.1111 16.7778 66.8889 17.6667 67.4444 18.7778C68 19.8889 68.2778 21.1667 68.2778 22.6667C68.2778 24.1667 68 25.4444 67.4444 26.5556C66.8889 27.6667 66.1111 28.5556 65.1111 29.2222C64.1111 29.8889 62.7778 30.2222 61.1667 30.2222C60.0556 30.2222 59 30 58 29.5556C57 29.1111 56.2222 28.4444 55.6667 27.5556H55.5556V30H51.5556V15.5556ZM64.2778 22.6667C64.2778 21.7778 64.1111 21 63.7778 20.3333C63.4444 19.6667 63 19.1667 62.4444 18.7778C61.8889 18.3889 61.2222 18.2222 60.5556 18.2222C59.8889 18.2222 59.2222 18.4444 58.6667 18.7778C58.1111 19.1111 57.6667 19.6111 57.3333 20.2778C57 20.9444 56.8333 21.7222 56.8333 22.6111C56.8333 23.5 57 24.2778 57.3333 24.9444C57.6667 25.6111 58.1111 26.1111 58.6667 26.4444C59.2222 26.7778 59.8889 26.9444 60.5556 26.9444C61.2222 26.9444 61.8889 26.7778 62.4444 26.4444C63 26.1111 63.4444 25.6111 63.7778 24.9444C64.1111 24.2778 64.2778 23.5556 64.2778 22.6667Z" fill="#00C3F7"/>
  <path d="M70.5556 15.5556H74.5556V17.7778H74.6667C75.1111 16.9444 75.7778 16.2778 76.6667 15.7778C77.5556 15.2778 78.5 15.0556 79.5 15.0556C80.5 15.0556 81.3889 15.2778 82.1667 15.7222C82.9444 16.1667 83.5 16.7778 83.8333 17.5556C84.3889 16.7222 85.1111 16.0556 86 15.6111C86.8889 15.1667 87.8889 14.9444 89 14.9444C89.8889 14.9444 90.7222 15.1111 91.5 15.4444C92.2778 15.7778 92.8889 16.2778 93.3333 16.9444C93.7778 17.6111 94 18.4444 94 19.4444V30H90V20.7778C90 19.7778 89.7778 19.0556 89.3333 18.6111C88.8889 18.1667 88.3333 17.9444 87.6667 17.9444C86.8889 17.9444 86.2778 18.2222 85.7778 18.7778C85.2778 19.3333 85.0556 20.1111 85.0556 21.1111V30H81.0556V20.7778C81.0556 19.7778 80.8333 19.0556 80.3889 18.6111C79.9444 18.1667 79.3889 17.9444 78.7222 17.9444C77.9444 17.9444 77.3333 18.2222 76.8333 18.7778C76.3333 19.3333 76.0556 20.1111 76.0556 21.1111V30H72.0556V15.5556H70.5556Z" fill="#00C3F7"/>
  <path d="M97.2222 15.5556H101.222V30H97.2222V15.5556ZM96.7778 10.5556C96.7778 9.88889 97 9.33333 97.4444 8.88889C97.8889 8.44444 98.4444 8.22222 99.1111 8.22222C99.7778 8.22222 100.333 8.44444 100.778 8.88889C101.222 9.33333 101.444 9.88889 101.444 10.5556C101.444 11.2222 101.222 11.7778 100.778 12.2222C100.333 12.6667 99.7778 12.8889 99.1111 12.8889C98.4444 12.8889 97.8889 12.6667 97.4444 12.2222C97 11.7778 96.7778 11.2222 96.7778 10.5556Z" fill="#00C3F7"/>
  <path d="M104.222 15.5556H108.222V17.7778H108.333C108.778 16.9444 109.444 16.2778 110.333 15.7778C111.222 15.2778 112.167 15.0556 113.167 15.0556C114.167 15.0556 115.056 15.2778 115.833 15.7222C116.611 16.1667 117.167 16.7778 117.5 17.5556C118.056 16.7222 118.778 16.0556 119.667 15.6111C120.556 15.1667 121.556 14.9444 122.667 14.9444C123.556 14.9444 124.389 15.1111 125.167 15.4444C125.944 15.7778 126.556 16.2778 127 16.9444C127.444 17.6111 127.667 18.4444 127.667 19.4444V30H123.667V20.7778C123.667 19.7778 123.444 19.0556 123 18.6111C122.556 18.1667 122 17.9444 121.333 17.9444C120.556 17.9444 119.944 18.2222 119.444 18.7778C118.944 19.3333 118.722 20.1111 118.722 21.1111V30H114.722V20.7778C114.722 19.7778 114.5 19.0556 114.056 18.6111C113.611 18.1667 113.056 17.9444 112.389 17.9444C111.611 17.9444 111 18.2222 110.5 18.7778C110 19.3333 109.722 20.1111 109.722 21.1111V30H105.722V15.5556H104.222Z" fill="#00C3F7"/>
</svg>
